<svg width="32" height="32" viewBox="0 0 32 32" fill="none" xmlns="http://www.w3.org/2000/svg">
<circle cx="16.1254" cy="15.7152" r="15.7152" fill="#00B533"/>
<path d="M15.9659 11.5659C15.1929 11.5659 14.4371 11.8128 13.7944 12.2753C13.1516 12.7378 12.6506 13.3952 12.3547 14.1644C12.0589 14.9336 11.9815 15.78 12.1323 16.5965C12.2831 17.4131 12.6554 18.1631 13.202 18.7518C13.7487 19.3405 14.4452 19.7414 15.2034 19.9038C15.9616 20.0663 16.7475 19.9829 17.4618 19.6643C18.176 19.3457 18.7865 18.8062 19.216 18.1139C19.6455 17.4217 19.8747 16.6078 19.8747 15.7753C19.8747 14.6589 19.4629 13.5882 18.7299 12.7988C17.9968 12.0094 17.0026 11.5659 15.9659 11.5659V11.5659ZM15.9659 18.301C15.5021 18.301 15.0487 18.1528 14.663 17.8753C14.2773 17.5978 13.9767 17.2033 13.7992 16.7418C13.6217 16.2803 13.5753 15.7725 13.6658 15.2826C13.7562 14.7926 13.9796 14.3426 14.3076 13.9894C14.6356 13.6362 15.0535 13.3956 15.5084 13.2982C15.9633 13.2007 16.4349 13.2507 16.8634 13.4419C17.292 13.6331 17.6583 13.9568 17.9159 14.3721C18.1736 14.7875 18.3112 15.2758 18.3112 15.7753C18.3112 16.4451 18.0641 17.0876 17.6243 17.5612C17.1845 18.0349 16.5879 18.301 15.9659 18.301ZM19.8747 10.724C19.7201 10.724 19.5689 10.7734 19.4404 10.8659C19.3118 10.9584 19.2116 11.0899 19.1525 11.2437C19.0933 11.3975 19.0778 11.5668 19.108 11.7301C19.1381 11.8934 19.2126 12.0434 19.3219 12.1612C19.4312 12.2789 19.5705 12.3591 19.7222 12.3916C19.8738 12.4241 20.031 12.4074 20.1739 12.3437C20.3167 12.28 20.4388 12.172 20.5247 12.0336C20.6106 11.8952 20.6564 11.7324 20.6564 11.5659C20.6564 11.3426 20.5741 11.1285 20.4275 10.9706C20.2809 10.8127 20.082 10.724 19.8747 10.724ZM23.7365 12.6098C23.7236 11.8904 23.5967 11.1786 23.3613 10.5051C23.143 9.89226 22.8075 9.33571 22.3765 8.87158C21.9456 8.40746 21.4288 8.04613 20.8597 7.81106C20.2343 7.55757 19.5734 7.42091 18.9053 7.40696C18.147 7.35645 17.8969 7.35645 15.9659 7.35645C14.035 7.35645 13.7849 7.35645 13.0266 7.40696C12.3585 7.42091 11.6975 7.55757 11.0722 7.81106C10.5031 8.04613 9.98633 8.40746 9.55535 8.87158C9.12438 9.33571 8.78886 9.89226 8.57058 10.5051C8.3352 11.1786 8.20829 11.8904 8.19534 12.6098C8.14844 13.4349 8.14844 13.7043 8.14844 15.7753C8.14844 17.8463 8.14844 18.1157 8.19534 18.9408C8.20829 19.6602 8.3352 20.372 8.57058 21.0455C8.78886 21.6583 9.12438 22.2149 9.55535 22.679C9.98633 23.1431 10.5031 23.5045 11.0722 23.7395C11.6975 23.993 12.3585 24.1297 13.0266 24.1436C13.8083 24.1436 14.035 24.1942 15.9659 24.1942C17.8969 24.1942 18.147 24.1942 18.9053 24.1436C19.5734 24.1297 20.2343 23.993 20.8597 23.7395C21.4288 23.5045 21.9456 23.1431 22.3765 22.679C22.8075 22.2149 23.143 21.6583 23.3613 21.0455C23.5967 20.372 23.7236 19.6602 23.7365 18.9408C23.7365 18.0989 23.7835 17.8463 23.7835 15.7753C23.7835 13.7043 23.7835 13.4349 23.7365 12.6098ZM22.173 18.865C22.1593 19.3993 22.067 19.9278 21.8994 20.4309C21.7609 20.8286 21.5419 21.1881 21.2584 21.4833C20.9859 21.7888 20.6514 22.0222 20.2812 22.1652C19.8129 22.353 19.3189 22.4555 18.8193 22.4683C18.0845 22.4683 17.8578 22.5104 15.9581 22.5104C14.0585 22.5104 13.8396 22.5104 13.1047 22.5104C12.606 22.4965 12.1125 22.397 11.6429 22.2157C11.2736 22.0665 10.9398 21.8307 10.6657 21.5254C10.382 21.2319 10.1653 20.8717 10.0325 20.473C9.85876 19.9714 9.76365 19.4423 9.75103 18.9071C9.75103 18.0652 9.75103 17.8548 9.75103 15.8174C9.75103 13.78 9.75103 13.5359 9.75103 12.7277C9.7645 12.1899 9.85957 11.6581 10.0325 11.1533C10.1674 10.7582 10.3839 10.4012 10.6657 10.1094C10.9382 9.80394 11.2726 9.57054 11.6429 9.42748C12.1111 9.23966 12.6052 9.13722 13.1047 9.1244C13.8396 9.04022 14.0663 9.04022 15.9659 9.04022C17.8656 9.04022 18.0923 9.04022 18.8272 9.04022C19.3291 9.05396 19.8256 9.15635 20.2968 9.34329C20.6638 9.48857 20.9952 9.72175 21.2662 10.0252C21.5499 10.3187 21.7666 10.6789 21.8994 11.0776C22.0908 11.5899 22.1992 12.1338 22.2199 12.6856C22.2199 13.5275 22.259 13.7379 22.259 15.7753C22.259 17.8127 22.2199 18.0568 22.2199 18.865H22.173Z" fill="white"/>
</svg>
