<svg width="21" height="21" viewBox="0 0 21 21" fill="none" xmlns="http://www.w3.org/2000/svg">
<g clip-path="url(#clip0_279_2300)">
<path d="M6.76348 1.00893C6.44766 0.246042 5.61504 -0.160013 4.81934 0.0573701L1.20996 1.04175C0.496289 1.23862 0 1.88667 0 2.62495C0 12.7722 8.22773 20.9999 18.375 20.9999C19.1133 20.9999 19.7613 20.5037 19.9582 19.79L20.9426 16.1806C21.16 15.3849 20.7539 14.5523 19.991 14.2365L16.0535 12.5958C15.385 12.3169 14.6098 12.5097 14.1545 13.0716L12.4975 15.0937C9.60996 13.7279 7.27207 11.39 5.90625 8.50249L7.92832 6.84956C8.49023 6.39018 8.68301 5.61909 8.4041 4.95053L6.76348 1.01303V1.00893Z" fill="white"/>
</g>
<defs>
<clipPath id="clip0_279_2300">
<rect width="21" height="21" fill="white"/>
</clipPath>
</defs>
</svg>
