<svg width="33" height="32" viewBox="0 0 33 32" fill="none" xmlns="http://www.w3.org/2000/svg">
<ellipse cx="16.0577" cy="15.6754" rx="16.0577" ry="15.6754" fill="#00B533"/>
<path d="M22.4989 8.76451L7.18418 14.4634C6.15136 14.8236 6.13243 15.5036 6.96321 15.7212L10.7374 17.0902L12.0942 21.7947C12.2665 22.2856 12.1681 22.4774 12.6327 22.4903C13.0043 22.5006 13.1956 22.3115 13.3868 22.1224C13.4824 22.0278 14.3429 21.1767 15.2991 20.2311L19.1175 23.3513C19.8499 23.7606 20.3199 23.5793 20.53 22.7101L23.4857 10.0559C23.7942 8.99501 23.1601 8.39401 22.4989 8.76451ZM20.4666 11.6247L13.0277 18.3206L12.6597 21.5188L11.3029 16.8142L20.0075 11.4175C20.3873 11.1364 20.7535 11.341 20.4666 11.6247Z" fill="white"/>
</svg>
