<svg width="32" height="32" viewBox="0 0 32 32" fill="none" xmlns="http://www.w3.org/2000/svg">
<circle cx="16.2855" cy="15.7152" r="15.7152" fill="#00B533"/>
<path fill-rule="evenodd" clip-rule="evenodd" d="M14.3992 18.0692L14.3986 12.9872L19.2512 15.537L14.3992 18.0692ZM25.0541 12.1065C25.0541 12.1065 24.8784 10.8602 24.3401 10.3113C23.6571 9.59067 22.8915 9.58727 22.5407 9.54544C20.0274 9.3623 16.2575 9.3623 16.2575 9.3623H16.2496C16.2496 9.3623 12.4797 9.3623 9.96635 9.54544C9.615 9.58727 8.85001 9.59067 8.1664 10.3113C7.62815 10.8602 7.45304 12.1065 7.45304 12.1065C7.45304 12.1065 7.27344 13.5705 7.27344 15.0339V16.4063C7.27344 17.8703 7.45304 19.3337 7.45304 19.3337C7.45304 19.3337 7.62815 20.58 8.1664 21.1289C8.85001 21.8496 9.74746 21.8269 10.1471 21.9021C11.5839 22.0412 16.2535 22.0841 16.2535 22.0841C16.2535 22.0841 20.0274 22.0785 22.5407 21.8953C22.8915 21.8529 23.6571 21.8496 24.3401 21.1289C24.8784 20.58 25.0541 19.3337 25.0541 19.3337C25.0541 19.3337 25.2337 17.8703 25.2337 16.4063V15.0339C25.2337 13.5705 25.0541 12.1065 25.0541 12.1065Z" fill="white"/>
</svg>
