<svg width="104" height="29" viewBox="0 0 104 29" fill="none" xmlns="http://www.w3.org/2000/svg">
<path d="M55.688 15.8082H57.8864V25.3724C57.8864 26.2136 57.6483 26.8719 57.172 27.3474C56.6958 27.8229 56.0363 28.0606 55.1935 28.0606H50.9805V25.921H54.7538C55.3768 25.921 55.688 25.6101 55.688 24.9884V15.8082Z" fill="#00B533"/>
<path d="M60.3359 23.88V18.9266H62.4353V23.8617C62.4353 24.5466 62.6362 25.1214 63.0374 25.5862C63.439 26.0387 63.9805 26.265 64.6618 26.265C65.3553 26.265 65.9032 26.0387 66.3048 25.5862C66.7183 25.1214 66.9251 24.5466 66.9251 23.8617V18.9266H69.024V23.88C69.024 25.2132 68.6287 26.2833 67.8377 27.0906C67.0467 27.8855 65.9883 28.283 64.6618 28.283C63.3479 28.283 62.2951 27.8855 61.5045 27.0906C60.7253 26.2833 60.3359 25.2132 60.3359 23.88Z" fill="#00B533"/>
<path d="M76.3914 18.7057C77.5502 18.7057 78.4681 19.078 79.1462 19.8226C79.8242 20.555 80.1628 21.556 80.1628 22.8254V28.0621H78.0368V23.155C78.0368 22.4348 77.8334 21.8611 77.427 21.4339C77.0326 20.9944 76.5086 20.7747 75.8554 20.7747C75.1405 20.7747 74.5491 21.0249 74.0805 21.5254C73.6123 22.0137 73.378 22.6484 73.378 23.4296V28.0621H71.252V18.962H73.3411V20.1339H73.4149C74.1298 19.1818 75.122 18.7057 76.3914 18.7057Z" fill="#00B533"/>
<path d="M82.168 14.9172H84.3957V17.692H82.168V14.9172ZM82.168 18.9881H84.3957V28.0607H82.168V18.9881Z" fill="#00B533"/>
<path d="M91.0051 28.2848C89.5157 28.2848 88.3017 27.8287 87.363 26.9164C86.4244 25.9919 85.9551 24.8485 85.9551 23.4861C85.9551 22.1238 86.4183 20.9864 87.3443 20.0742C88.2829 19.1619 89.503 18.7057 91.0051 18.7057C92.4815 18.7057 93.6768 19.1619 94.5906 20.0742C95.5166 20.9864 95.9798 22.1238 95.9798 23.4861C95.9798 24.8485 95.5166 25.9919 94.5906 26.9164C93.6641 27.8287 92.4693 28.2848 91.0051 28.2848ZM91.0051 26.2778C91.8309 26.2778 92.5068 26.0102 93.0323 25.475C93.5578 24.9397 93.8206 24.2829 93.8206 23.5044C93.8206 22.7137 93.5578 22.0569 93.0323 21.5338C92.5068 20.9986 91.8309 20.731 91.0051 20.731C90.1541 20.731 89.4595 20.9986 88.9213 21.5338C88.3953 22.0569 88.1326 22.7137 88.1326 23.5044C88.1326 24.2829 88.3953 24.9397 88.9213 25.475C89.4595 26.0102 90.1541 26.2778 91.0051 26.2778Z" fill="#00B533"/>
<path d="M102.135 18.9266H103.999V21.0584H102.098C101.372 21.0584 100.782 21.2851 100.326 21.7384C99.8832 22.1917 99.6617 22.8104 99.6617 23.5945V28.0602H97.5391V18.9266H99.588V20.4336H99.6617C100.093 19.4289 100.917 18.9266 102.135 18.9266Z" fill="#00B533"/>
<path d="M57.2952 0C58.5355 0 59.5753 0.411139 60.4146 1.23342C61.2543 2.04324 61.6739 3.06485 61.6739 4.29827C61.6739 5.5566 61.2478 6.59066 60.3961 7.40049C59.5563 8.19784 58.523 8.59656 57.2952 8.59656H53.6492V12.521H50.9805V0H57.2952ZM53.6492 6.07365H57.0882C57.6268 6.07365 58.0719 5.91168 58.4225 5.58775C58.7861 5.26382 58.9677 4.83399 58.9677 4.29827C58.9677 3.79992 58.7861 3.38878 58.4225 3.06485C58.0594 2.74092 57.6143 2.57896 57.0882 2.57896H53.6492V6.07365Z" fill="white"/>
<path d="M63.2773 12.521V0H68.5768C70.4438 0 71.9848 0.585561 73.2001 1.75668C74.4154 2.92781 75.0231 4.41663 75.0231 6.22313V6.27921C75.0231 8.08573 74.4154 9.58075 73.2001 10.7643C71.9848 11.9355 70.4438 12.521 68.5768 12.521H63.2773ZM68.5393 2.57896H65.9461V9.9234H68.5393C69.6546 9.9234 70.5568 9.58702 71.2455 8.91423C71.9472 8.24147 72.2983 7.36312 72.2983 6.27921V6.22313C72.2983 5.13922 71.9472 4.26089 71.2455 3.58812C70.5568 2.91535 69.6546 2.57896 68.5393 2.57896Z" fill="white"/>
<path d="M83.0799 0C84.3202 0 85.3605 0.411139 86.1997 1.23342C87.0394 2.04324 87.4591 3.06485 87.4591 4.29827C87.4591 5.5566 87.033 6.59066 86.1812 7.40049C85.3415 8.19784 84.3077 8.59656 83.0799 8.59656H79.4344V12.521H76.7656V0H83.0799ZM79.4344 6.07365H82.8733C83.412 6.07365 83.8571 5.91168 84.2077 5.58775C84.5708 5.26382 84.7528 4.83399 84.7528 4.29827C84.7528 3.79992 84.5708 3.38878 84.2077 3.06485C83.8441 2.74092 83.3995 2.57896 82.8733 2.57896H79.4344V6.07365Z" fill="white"/>
<path fill-rule="evenodd" clip-rule="evenodd" d="M30.9985 28.4351H25.0938L32.0719 0H37.9766L30.9972 28.4351H30.9985Z" fill="white"/>
<path fill-rule="evenodd" clip-rule="evenodd" d="M39.5903 28.4351H33.6855L40.665 0H46.571L39.5916 28.4351H39.5903Z" fill="white"/>
<path fill-rule="evenodd" clip-rule="evenodd" d="M12.5475 1.67261C5.62945 1.67261 0 7.30205 0 14.2201C0 21.1382 5.62945 26.7659 12.5475 26.7659C19.4656 26.7659 25.0933 21.1365 25.0933 14.2201C25.0933 7.30376 19.4656 1.67261 12.5475 1.67261Z" fill="#00B533"/>
</svg>
